<svg width="32" height="32" viewBox="0 0 32 32" fill="none" xmlns="http://www.w3.org/2000/svg">
<path d="M1.68489 30.9962C3.7682 32.5039 6.08108 32.2498 7.71012 30.6248L8.6553 29.6816C9.3416 28.9925 10.0132 28.9485 10.7264 29.662L11.8425 30.7763C12.5986 31.5413 13.6236 31.9802 14.6987 31.9993C15.7738 32.0185 16.8138 31.6164 17.5967 30.8789C18.874 29.6034 19.4577 27.0816 17.4575 25.0803L15.8064 23.4285C15.7497 23.3879 15.7024 23.3356 15.6675 23.2751C15.6327 23.2147 15.6112 23.1475 15.6045 23.078C15.5978 23.0086 15.606 22.9385 15.6286 22.8725C15.6513 22.8065 15.6877 22.7461 15.7356 22.6954C15.7829 22.6471 15.84 22.6097 15.9031 22.5857C15.9661 22.5617 16.0337 22.5517 16.101 22.5563C16.1684 22.561 16.2339 22.5802 16.2931 22.6126C16.3523 22.6451 16.4038 22.69 16.4439 22.7443L24.2594 30.5637C26.3085 32.6139 28.9218 32.1667 30.3481 30.9962L24.1959 24.8433C22.7525 23.3991 20.889 23.4114 19.4529 24.4377L18.7934 23.7779C19.7972 22.2751 19.7704 20.4204 18.4295 19.074C17.7929 18.4395 16.9323 18.0812 16.0337 18.0767C15.1352 18.0721 14.2709 18.4216 13.6279 19.0496C12.3554 20.3202 11.7888 22.4071 13.6499 24.2691L13.9674 24.5867L13.3104 25.2465L13.0344 24.9704C11.2124 23.1475 9.11446 23.5702 7.81759 24.8677L1.68976 30.9962M30.9978 30.3365C32.5022 28.2496 32.2483 25.938 30.6241 24.3057L29.6813 23.3625C28.9926 22.6734 28.9487 22.0014 29.6618 21.2903L30.778 20.1736C31.5424 19.4164 31.9807 18.3903 31.9994 17.3143C32.0181 16.2382 31.6157 15.1975 30.8781 14.4141C29.6032 13.1386 27.0827 12.5546 25.0824 14.5558L23.4314 16.2077C23.3907 16.2643 23.3382 16.3115 23.2777 16.3461C23.2172 16.3807 23.15 16.402 23.0806 16.4085C23.0112 16.4149 22.9412 16.4065 22.8753 16.3837C22.8095 16.3608 22.7493 16.3242 22.6987 16.2761C22.6506 16.2287 22.6134 16.1714 22.5896 16.1082C22.5658 16.045 22.556 15.9773 22.5609 15.91C22.5657 15.8426 22.5852 15.7771 22.6178 15.7179C22.6505 15.6588 22.6956 15.6075 22.75 15.5675L30.5655 7.74804C32.617 5.69788 32.1677 3.08326 31.0002 1.65621L24.848 7.81158C23.4046 9.25573 23.4168 11.1177 24.4426 12.557L23.7831 13.2143C22.2811 12.2125 20.4274 12.2369 19.0816 13.5809C18.4474 14.2178 18.0893 15.0789 18.0848 15.9779C18.0802 16.8769 18.4295 17.7416 19.0572 18.3849C20.3272 19.6556 22.413 20.2225 24.274 18.3629L24.5915 18.0428L25.251 18.7026L24.975 18.9787C23.153 20.7992 23.5755 22.9007 24.8724 24.1982L31.0002 30.3291M30.3383 1.00621C28.255 -0.499028 25.9421 -0.244897 24.3131 1.38008L23.3704 2.3233C22.6816 3.01239 22.01 3.05638 21.2968 2.34285L20.1782 1.22369C19.4222 0.458746 18.3971 0.019831 17.322 0.00065565C16.2469 -0.0185197 15.2069 0.383564 14.4241 1.12106C13.1468 2.39905 12.563 4.92083 14.5633 6.92211L16.2168 8.57397C16.2733 8.61476 16.3205 8.66719 16.3551 8.72773C16.3897 8.78827 16.4109 8.85552 16.4174 8.92496C16.4239 8.9944 16.4154 9.06443 16.3926 9.13033C16.3698 9.19624 16.3332 9.25649 16.2852 9.30704C16.2379 9.3553 16.1808 9.39272 16.1177 9.41674C16.0546 9.44075 15.9871 9.45078 15.9197 9.44614C15.8524 9.44149 15.7869 9.42228 15.7277 9.38983C15.6685 9.35737 15.617 9.31246 15.5769 9.25817L7.7614 1.43873C5.71228 -0.613875 3.09899 -0.164257 1.67266 1.00377L7.8249 7.15914C9.26832 8.60085 11.1318 8.58863 12.5679 7.56477L13.2273 8.22209C12.2235 9.72734 12.2504 11.582 13.5913 12.926C14.2275 13.5608 15.088 13.9195 15.9866 13.9246C16.8851 13.9296 17.7496 13.5805 18.3929 12.9529C19.6653 11.6798 20.232 9.59294 18.3709 7.73338L18.0534 7.41327L18.7104 6.75595L18.9864 7.03207C20.8084 8.85254 22.9063 8.43224 24.2032 7.1347L30.331 1.00377M7.12884 7.79447C8.42572 9.09201 8.83848 11.1935 7.02627 13.0164L6.75029 13.2901L7.4097 13.9498L7.72722 13.6322C9.58828 11.7702 11.674 12.3371 12.944 13.6102C13.5717 14.2535 13.921 15.1182 13.9165 16.0172C13.9119 16.9163 13.5538 17.7773 12.9196 18.4143C11.5739 19.7582 9.72017 19.7827 8.21813 18.7783L7.5587 19.4381C8.58448 20.8749 8.59668 22.7394 7.15326 24.1811L1.00102 30.3365C-0.166414 28.9094 -0.615796 26.2972 1.43576 24.2446L9.25123 16.4252C9.30514 16.3848 9.34971 16.3332 9.38191 16.274C9.4141 16.2148 9.43316 16.1493 9.43779 16.0821C9.44243 16.0148 9.43253 15.9474 9.40877 15.8843C9.385 15.8212 9.34793 15.764 9.30008 15.7165C9.24955 15.6685 9.18932 15.6318 9.12345 15.609C9.05758 15.5862 8.98759 15.5777 8.91819 15.5842C8.84878 15.5907 8.78157 15.612 8.72106 15.6466C8.66055 15.6812 8.60815 15.7284 8.56738 15.785L6.91636 17.4368C4.91609 19.4406 2.39559 18.8541 1.12069 17.5786C0.383832 16.7953 -0.0180811 15.7551 0.000624873 14.6796C0.0193309 13.6042 0.457184 12.5786 1.22084 11.8215L2.33699 10.7048C3.05015 9.99125 3.00618 9.31926 2.31744 8.63017L1.37471 7.68695C-0.249446 6.06442 -0.503456 3.74302 1.00102 1.65865L7.12884 7.78714" fill="#8F837E"/>
</svg>
